<?xml version="1.0" encoding="UTF-8" standalone="no"?>
<!-- Created with Inkscape (http://www.inkscape.org/) -->

<svg
        width="48"
        height="48"
        viewBox="0 0 12.7 12.7"
        version="1.1"
        id="svg5"
        xml:space="preserve"
        xmlns="http://www.w3.org/2000/svg"
><defs
     id="defs2" />
    <g
            id="layer1"><path
       id="path3835"
       style="fill:#ee2123;fill-opacity:1;fill-rule:evenodd;stroke-width:0.264583;stroke-linecap:round;stroke-linejoin:round"
       d="m 6.35,0.52916667 c -1.0583321,-10e-9 -1.0583333,0.95152143 -1.0583333,1.58750003 10e-8,2.1166645 0.5291666,6.35 0.5291666,6.35 h 1.0583334 c 0,0 0.5291667,-4.2333355 0.5291666,-6.35 0,-0.6359786 -1e-6,-1.58750002 -1.0583333,-1.58750003 z M 6.35,9.525 A 1.0583333,1.0583333 0 0 0 5.2916667,10.583333 1.0583333,1.0583333 0 0 0 6.35,11.641667 1.0583333,1.0583333 0 0 0 7.4083333,10.583333 1.0583333,1.0583333 0 0 0 6.35,9.525 Z" /></g></svg>
